<?xml version="1.0" encoding="UTF-8" standalone="no"?>
<!-- Created with Inkscape (http://www.inkscape.org/) -->

<svg
   xmlns:dc="http://purl.org/dc/elements/1.1/"
   xmlns:cc="http://creativecommons.org/ns#"
   xmlns:rdf="http://www.w3.org/1999/02/22-rdf-syntax-ns#"
   xmlns:svg="http://www.w3.org/2000/svg"
   xmlns="http://www.w3.org/2000/svg"
   xmlns:xlink="http://www.w3.org/1999/xlink"
   xmlns:sodipodi="http://sodipodi.sourceforge.net/DTD/sodipodi-0.dtd"
   xmlns:inkscape="http://www.inkscape.org/namespaces/inkscape"
   width="210mm"
   height="297mm"
   viewBox="0 0 210 297"
   version="1.1"
   id="svg8"
   inkscape:version="0.92.4 (5da689c313, 2019-01-14)"
   sodipodi:docname="lavoroSulleAree.svg">
  <defs
     id="defs2" />
  <sodipodi:namedview
     id="base"
     pagecolor="#ffffff"
     bordercolor="#666666"
     borderopacity="1.0"
     inkscape:pageopacity="0.0"
     inkscape:pageshadow="2"
     inkscape:zoom="1"
     inkscape:cx="326.22573"
     inkscape:cy="736.48031"
     inkscape:document-units="mm"
     inkscape:current-layer="layer1"
     showgrid="false"
     inkscape:window-width="2560"
     inkscape:window-height="1017"
     inkscape:window-x="1912"
     inkscape:window-y="-8"
     inkscape:window-maximized="1" />
  <metadata
     id="metadata5">
    <rdf:RDF>
      <cc:Work
         rdf:about="">
        <dc:format>image/svg+xml</dc:format>
        <dc:type
           rdf:resource="http://purl.org/dc/dcmitype/StillImage" />
        <dc:title></dc:title>
      </cc:Work>
    </rdf:RDF>
  </metadata>
  <g
     inkscape:label="Livello 1"
     inkscape:groupmode="layer"
     id="layer1">
    <g
       id="g144"
       transform="matrix(0.66650876,0,0,0.66650876,13.659935,45.385066)">
      <circle
         r="32.933853"
         cy="133.71428"
         cx="24.946428"
         id="path12"
         style="opacity:1;fill:#ff6600;fill-opacity:1;stroke:#000000;stroke-width:0.79374999;stroke-miterlimit:4;stroke-dasharray:none" />
      <circle
         r="24.33474"
         cy="98.184532"
         cx="41.577377"
         id="path14"
         style="opacity:1;fill:#d4ff2a;fill-opacity:1;stroke:#000000;stroke-width:0.79374999;stroke-miterlimit:4;stroke-dasharray:none" />
      <circle
         r="18.716501"
         cy="119.35119"
         cx="55.5625"
         id="path16"
         style="opacity:1;fill:#ff5555;fill-opacity:1;stroke:#000000;stroke-width:0.79374999;stroke-miterlimit:4;stroke-dasharray:none" />
      <circle
         r="2.8348215"
         cy="142.40773"
         cx="24.379465"
         id="path24"
         style="opacity:1;fill:#00ffff;fill-opacity:1;stroke:#666666;stroke-width:0.79374999;stroke-miterlimit:4;stroke-dasharray:none" />
      <circle
         r="2.8348215"
         cy="109.90179"
         cx="31.372025"
         id="path24-9"
         style="opacity:1;fill:#00ffff;fill-opacity:1;stroke:#666666;stroke-width:0.79374999;stroke-miterlimit:4;stroke-dasharray:none" />
      <circle
         r="2.8348215"
         cy="125.02083"
         cx="66.523811"
         id="path24-96"
         style="opacity:1;fill:#00ffff;fill-opacity:1;stroke:#666666;stroke-width:0.79374999;stroke-miterlimit:4;stroke-dasharray:none" />
    </g>
    <g
       id="g128"
       transform="matrix(0.66650876,0,0,0.66650876,5.9669989,25.496792)">
      <path
         id="circle77"
         transform="scale(0.26458333)"
         d="m 580,390.54492 a 91.973819,91.973819 0 0 0 -91.97461,91.97461 91.973819,91.973819 0 0 0 1.04102,13.17578 A 124.47441,124.47441 0 0 0 392.66797,616.80469 124.47441,124.47441 0 0 0 517.14258,741.2793 124.47441,124.47441 0 0 0 640.46289,632.76562 70.739532,70.739532 0 0 0 703.5957,562.51953 70.739532,70.739532 0 0 0 669.76172,502.27344 91.973819,91.973819 0 0 0 671.97461,482.51953 91.973819,91.973819 0 0 0 580,390.54492 Z"
         style="opacity:1;fill:#b3b3b3;fill-opacity:1;stroke:#000000;stroke-width:3;stroke-miterlimit:4;stroke-dasharray:none"
         inkscape:connector-curvature="0" />
      <circle
         style="opacity:1;fill:#00ffff;fill-opacity:1;stroke:#666666;stroke-width:0.79374999;stroke-miterlimit:4;stroke-dasharray:none"
         id="circle83"
         cx="136.26042"
         cy="171.88988"
         r="2.8348215" />
      <circle
         style="opacity:1;fill:#00ffff;fill-opacity:1;stroke:#666666;stroke-width:0.79374999;stroke-miterlimit:4;stroke-dasharray:none"
         id="circle85"
         cx="143.25298"
         cy="139.38393"
         r="2.8348215" />
      <circle
         style="opacity:1;fill:#00ffff;fill-opacity:1;stroke:#666666;stroke-width:0.79374999;stroke-miterlimit:4;stroke-dasharray:none"
         id="circle87"
         cx="178.40477"
         cy="154.50298"
         r="2.8348215" />
    </g>
    <g
       id="g122"
       transform="matrix(0.66650876,0,0,0.66650876,212.29299,-13.299706)">
      <path
         d="m -26.262667,207.04167 a 18.716501,18.716501 0 0 1 -18.716501,18.7165 18.716501,18.716501 0 0 1 -18.716501,-18.7165 18.716501,18.716501 0 0 1 18.716501,-18.7165 18.716501,18.716501 0 0 1 18.716501,18.7165 z m -8.366884,-21.16665 a 24.33474,24.33474 0 0 1 -24.33474,24.33473 24.33474,24.33474 0 0 1 -24.334739,-24.33473 24.33474,24.33474 0 0 1 24.334739,-24.33474 24.33474,24.33474 0 0 1 24.33474,24.33474 z m -8.031834,35.52973 a 32.933853,32.933853 0 0 1 -32.933853,32.93386 32.933853,32.933853 0 0 1 -32.933852,-32.93386 32.933853,32.933853 0 0 1 32.933852,-32.93385 32.933853,32.933853 0 0 1 32.933853,32.93385 z"
         style="opacity:1;fill:#b3b3b3;fill-opacity:1;stroke:#000000;stroke-width:0.79374999;stroke-miterlimit:4;stroke-dasharray:none"
         id="circle100"
         inkscape:connector-curvature="0" />
      <circle
         style="opacity:1;fill:#00ffff;fill-opacity:1;stroke:#666666;stroke-width:0.79374999;stroke-miterlimit:4;stroke-dasharray:none"
         id="circle102"
         cx="-76.162201"
         cy="230.09821"
         r="2.8348215" />
      <circle
         style="opacity:1;fill:#00ffff;fill-opacity:1;stroke:#666666;stroke-width:0.79374999;stroke-miterlimit:4;stroke-dasharray:none"
         id="circle104"
         cx="-69.16964"
         cy="197.59227"
         r="2.8348215" />
      <circle
         style="opacity:1;fill:#00ffff;fill-opacity:1;stroke:#666666;stroke-width:0.79374999;stroke-miterlimit:4;stroke-dasharray:none"
         id="circle106"
         cx="-34.017857"
         cy="212.7113"
         r="2.8348215" />
    </g>
    <rect
       style="opacity:1;fill:#ffffff;fill-opacity:1;stroke:none;stroke-width:0.57107276;stroke-miterlimit:4;stroke-dasharray:none"
       id="rect152"
       width="54.861591"
       height="30.203667"
       x="8.3210983"
       y="59.27343" />
    <rect
       style="opacity:1;fill:#ffffff;fill-opacity:1;stroke:none;stroke-width:0.57107282;stroke-miterlimit:4;stroke-dasharray:none"
       id="rect152-7"
       width="54.861591"
       height="30.203667"
       x="75.197662"
       y="59.27343" />
    <flowRoot
       transform="matrix(3.7795276,0,0,3.7795276,80.740625,-185.34083)"
       xml:space="preserve"
       style="font-style:normal;font-variant:normal;font-weight:normal;font-stretch:normal;font-size:10.58333302px;line-height:1.25;font-family:OpenSymbol;-inkscape-font-specification:OpenSymbol;letter-spacing:0px;word-spacing:0px;fill:#000000;fill-opacity:1;stroke:none;stroke-width:0.26458332"
       id="flowRoot154-1"><flowRegion
         id="flowRegion156-7"><use
           x="0"
           y="0"
           xlink:href="#rect152-7"
           id="use158-3"
           width="100%"
           height="100%"
           transform="matrix(0.26458333,0,0,0.26458333,-32.163293,56.838578)" /></flowRegion><flowPara
         id="flowPara160-5"
         style="font-size:7.05555534px">Genero le aree raggiungibili in 5 minuti</flowPara></flowRoot>  </g>
</svg>
