<?xml version="1.0" encoding="UTF-8" standalone="no"?>
<!-- Created with Inkscape (http://www.inkscape.org/) -->

<svg
   xmlns:dc="http://purl.org/dc/elements/1.1/"
   xmlns:cc="http://creativecommons.org/ns#"
   xmlns:rdf="http://www.w3.org/1999/02/22-rdf-syntax-ns#"
   xmlns:svg="http://www.w3.org/2000/svg"
   xmlns="http://www.w3.org/2000/svg"
   xmlns:sodipodi="http://sodipodi.sourceforge.net/DTD/sodipodi-0.dtd"
   xmlns:inkscape="http://www.inkscape.org/namespaces/inkscape"
   width="210mm"
   height="297mm"
   viewBox="0 0 210 297"
   version="1.1"
   id="svg8"
   inkscape:version="0.92.1 r15371">
  <defs
     id="defs2">
    <style
       id="style6">@font-face {font-family: &quot;Montserrat--normal--normal&quot;; format(&quot;truetype&quot;)
;}</style>
  </defs>
  <sodipodi:namedview
     id="base"
     pagecolor="#ffffff"
     bordercolor="#666666"
     borderopacity="1.0"
     inkscape:pageopacity="0.0"
     inkscape:pageshadow="2"
     inkscape:zoom="1.9033708"
     inkscape:cx="401.42857"
     inkscape:cy="480"
     inkscape:document-units="mm"
     inkscape:current-layer="layer1"
     showgrid="false"
     inkscape:window-width="1920"
     inkscape:window-height="1027"
     inkscape:window-x="1272"
     inkscape:window-y="-8"
     inkscape:window-maximized="1" />
  <metadata
     id="metadata5">
    <rdf:RDF>
      <cc:Work
         rdf:about="">
        <dc:format>image/svg+xml</dc:format>
        <dc:type
           rdf:resource="http://purl.org/dc/dcmitype/StillImage" />
        <dc:title></dc:title>
      </cc:Work>
    </rdf:RDF>
  </metadata>
  <g
     inkscape:label="Livello 1"
     inkscape:groupmode="layer"
     id="layer1">
    <g
       id="g8"
       transform="matrix(0.26458333,0,0,0.26458333,16.252977,123.13095)">
      <title
         id="title10">background</title>
      <rect
         style="fill:none"
         id="canvas_background"
         height="402"
         width="582"
         y="-1"
         x="-1" />
    </g>
    <g
       id="g4219"
       transform="matrix(0.26458333,0,0,0.26458333,16.252977,123.13095)">
      <g
         transform="translate(-26,4)"
         class="logo__item"
         id="logo__item--business">
        <g
           id="svg_1"
           transform="matrix(4.5181508,0,0,4.5181508,349.10937,389.01669)"
           class="logo__item__inner" />
      </g>
      <g
         id="g4154"
         transform="translate(20.991818,-15.266776)">
        <text
           inkscape:export-ydpi="72"
           inkscape:export-xdpi="72"
           font-size="32px"
           font-weight="normal"
           font-style="normal"
           id="svg_2"
           y="-32.756763"
           x="-24.124914"
           style="font-style:normal;font-weight:normal;font-size:32px;line-height:0%;font-family:Montserrat--normal--normal;fill:#2e85d1;fill-opacity:1"
           transform="matrix(4.5181508,0,0,4.5181508,323.10937,393.01669)">
          <tspan
             style="font-style:normal;font-variant:normal;font-weight:normal;font-stretch:normal;font-size:27.66618538px;font-family:Ubuntu;-inkscape-font-specification:Ubuntu;letter-spacing:0.00284089px;fill:#2e85d1;fill-opacity:1"
             id="tspan4217">nData</tspan>
        </text>
        <g
           id="g4553">
          <g
             id="svg_5"
             transform="matrix(0.75968681,0,0,0.75968681,192.00828,273.66899)"
             style="fill:#2e85d1;fill-opacity:1">
            <path
               d="m -97.165004,-84.853339 c 36.8,0 83.6,29.5 91,44 0.6,1.2 0.9,2.2 1,3.1 l 1.6,-1.6 c 4.6,-5.5 4.8,-5.7 7.1,-9.2 3.3,-5.7 4.1,-7.1 6.7,-14 l 0.3,-1.1 c -0.8,-16 -54.4,-43.100001 -94.3,-43.100001 -14.8,0 -25.799996,3.7 -32.799996,10.900001 -5.2,5.3 -7.6,12.6 -7.1,21.1 0.5,8.6 4,17.3 9.8,25.1 -5.6,-8.7 -7.7,-17.4 -5.3,-24 1.7,-4.9 6.7,-10.8 20.099996,-11.2 0.6,0 1.3,0 1.9,0 z"
               id="svg_6"
               inkscape:connector-curvature="0"
               style="fill:#2e85d1;fill-opacity:1" />
          </g>
          <g
             id="svg_7"
             transform="matrix(0.75968681,0,0,0.75968681,192.00828,273.66899)"
             style="fill:#2e85d1;fill-opacity:1">
            <path
               d="m -59.065004,-155.45334 c 8.4,0 16.8,1.4 24.9,4.1 15.6,5.2 29,15 37.9,27.5 -7.5,-14.8 -20.6,-26.3 -36.5,-31.6 -6.5,-2.2 -13.2,-3.3 -20,-3.3 -9.9,0 -19.5,2.3 -28.3,6.7 7,-2.3 14.4,-3.4 22,-3.4 z"
               id="svg_8"
               inkscape:connector-curvature="0"
               style="fill:#2e85d1;fill-opacity:1" />
          </g>
          <g
             id="svg_9"
             transform="matrix(0.75968681,0,0,0.75968681,192.00828,273.66899)"
             style="opacity:0.95999995;fill:#eb593f;fill-opacity:0.94117647">
            <g
               id="svg_10"
               style="fill:#eb593f;fill-opacity:0.94117647">
              <path
                 d="m -59.265004,-36.153339 25.1,-0.1 -12.6,-21.2 -2.1,3.7 -0.7,-0.3 c -16.1,-6.4 -31.9,-9.4 -44.5,-8.6 -0.6,0 -1.2,0.1 -1.8,0.1 -9.199996,0.9 -14.999996,4.2 -16.499996,9.4 -1.2,4.2 0.6,9.4 4.7,14.5 -1,-2.5 -1,-4.6 0,-6.4 1.5,-2.6 5.1,-4.1 10.299996,-4.5 8.7,-0.6 21,2.1 33.7,7.2 1.7,0.7 3.5,1.5 5.4,2.4 l 0.8,0.4 z"
                 id="svg_11"
                 inkscape:connector-curvature="0"
                 style="fill:#eb593f;fill-opacity:0.94117647" />
            </g>
          </g>
          <g
             id="svg_12"
             transform="matrix(0.75968681,0,0,0.75968681,192.00828,273.66899)"
             style="fill:#eb593c;fill-opacity:1">
            <g
               id="svg_13"
               style="fill:#eb593c;fill-opacity:1">
              <path
                 d="m -87.665004,-130.95334 c 40,0 91.6,29 101.3,46.900001 v -0.7 c -0.1,-4.2 -0.2,-4.6 -1.2,-11.4 -0.2,-1.1 -0.5,-2.5 -0.8,-3.7 l -0.3,-1.400001 c -1.2,-3.4 -3.9,-6.4 -6,-8.3 -20.6,-19.2 -53.5,-32.1 -81.9,-32.1 -9.2,0 -17.5,1.3 -24.699996,4 l -0.6,0.2 -3.4,-6.3 -11.1,18.5 21.599996,0.7 -3.1,-5.7 1.1,-0.1 c 2.9,-0.4 6,-0.6 9.1,-0.6 z"
                 id="svg_14"
                 inkscape:connector-curvature="0"
                 style="fill:#eb593c;fill-opacity:1" />
            </g>
          </g>
        </g>
      </g>
    </g>
  </g>
</svg>
